<svg width="20" height="20" viewBox="0 0 20 20" fill="none" xmlns="http://www.w3.org/2000/svg">
<path d="M10 4.20833C10 2.54167 11.25 0.875 12.9167 0.875C12.9167 2.54167 11.6667 4.20833 10 4.20833Z" fill="black" fill-opacity="0.8"/>
<path d="M10.4173 5.32501C9.98823 5.32501 9.65623 5.18872 9.28515 5.0364C8.81532 4.84354 8.28294 4.625 7.41177 4.625C5.85261 4.625 3.33398 5.87454 3.33398 9.20792C3.33398 13.0847 5.92124 17.125 7.58791 17.125C8.14587 17.125 8.64857 16.9059 9.12898 16.6966C9.56857 16.5049 9.98965 16.3214 10.4173 16.3214C10.845 16.3214 11.2661 16.5049 11.7056 16.6966C12.1861 16.9059 12.6887 17.125 13.2467 17.125C14.4072 17.125 15.7984 15.166 16.6673 12.6673C15.3167 12.1002 14.449 10.765 14.449 9.20833C14.449 7.85083 15.1703 6.94985 16.2506 6.29167C15.4173 5.04167 14.1785 4.625 13.2879 4.625C12.4167 4.625 11.8843 4.84354 11.4145 5.0364C11.0435 5.18872 10.8464 5.32501 10.4173 5.32501Z" fill="black" fill-opacity="0.8"/>
</svg>
