<svg width="118" height="118" viewBox="0 0 118 118" fill="none" xmlns="http://www.w3.org/2000/svg">
<g filter="url(#filter0_i_394_1674)">
<path d="M34.6997 30.5579C39.9969 18.5826 55.0014 14.5621 65.5766 22.2844L68.0601 24.098C70.9971 26.2427 74.4512 27.5686 78.0689 27.94L81.1281 28.2541C94.1542 29.5914 102.614 42.6192 98.538 55.0631L97.5806 57.9855C96.4485 61.4415 96.2549 65.1362 97.0196 68.6916L97.6662 71.6981C100.42 84.5 90.6439 96.572 77.5493 96.5404L74.4741 96.533C70.8374 96.5242 67.2636 97.4818 64.1186 99.3077L61.459 100.852C50.1346 107.426 35.6325 101.86 31.6161 89.3962L30.6729 86.4692C29.5574 83.0077 27.5424 79.9048 24.8339 77.4779L22.5436 75.4257C12.7913 66.6872 13.6043 51.1747 24.2166 43.5035L26.7089 41.7019C29.6562 39.5714 31.9845 36.6961 33.4557 33.3703L34.6997 30.5579Z" fill="url(#paint0_linear_394_1674)"/>
</g>
<g filter="url(#filter1_f_394_1674)">
<circle cx="58.9995" cy="58.9998" r="22.9337" transform="rotate(-15 58.9995 58.9998)" fill="#882EFD" fill-opacity="0.8"/>
</g>
<circle cx="49.2823" cy="54.4399" r="3.80116" transform="rotate(-15 49.2823 54.4399)" fill="black"/>
<circle cx="48.6106" cy="51.9989" r="1.26705" transform="rotate(-15 48.6106 51.9989)" fill="white"/>
<circle cx="64.7038" cy="50.3075" r="3.80116" transform="rotate(-15 64.7038 50.3075)" fill="black"/>
<circle cx="64.0321" cy="47.8665" r="1.26705" transform="rotate(-15 64.0321 47.8665)" fill="white"/>
<path d="M40.7281 62.215L48.4548 46.5024L47.1566 46.0632L45.1328 46.3431L39.7642 61.555L40.7281 62.215Z" fill="white" fill-opacity="0.06"/>
<path d="M69.6272 72.8691C69.6272 72.8691 67.6404 68.9109 62.3333 69.1823C57.0261 69.4537 55.4547 73.594 55.4547 73.594" stroke="black" stroke-width="1.51415" stroke-linecap="round"/>
<path d="M55.2824 52.8877L58.9488 51.9053" stroke="#ECFF6D" stroke-width="1.00943"/>
<g filter="url(#filter2_g_394_1674)">
<path d="M60.4866 37.2007C59.9788 37.0347 59.4412 37.0846 58.9865 37.3629C58.5321 37.6399 58.1978 38.1226 58.0628 38.6812C57.9278 39.2399 58.0049 39.8219 58.2827 40.2758C58.5602 40.7311 59.0157 41.0209 59.5433 41.1051C59.5433 41.1051 59.5433 41.1051 59.5433 41.1051C59.8757 41.1595 60.1907 41.2082 60.5244 41.2593C66.3703 42.3065 72.8024 41.9403 78.2909 39.9494C78.6065 39.8468 78.9054 39.7459 79.2195 39.6391C79.3363 39.599 79.4354 39.51 79.4963 39.3972C79.5572 39.2842 79.5748 39.1566 79.544 39.037C79.5132 38.9175 79.4361 38.8143 79.3282 38.7447C79.2204 38.6754 79.0907 38.6454 78.969 38.6667C78.969 38.6667 78.969 38.6667 78.969 38.6667C78.6465 38.7238 78.3399 38.7749 78.0181 38.8273C72.2868 39.8983 66.7805 39.3188 61.3913 37.4916C61.0842 37.3952 60.7941 37.3008 60.4866 37.2007Z" fill="black"/>
</g>
<g filter="url(#filter3_g_394_1674)">
<path d="M47.3677 40.6943C47.7331 40.3044 48.2284 40.0895 48.7609 40.1149C49.2925 40.1393 49.8178 40.4019 50.2049 40.8269C50.5919 41.2519 50.8044 41.7994 50.779 42.331C50.7546 42.8636 50.4945 43.3366 50.0722 43.664C50.0722 43.664 50.0722 43.664 50.0722 43.664C49.8081 43.8706 49.5544 44.0654 49.2877 44.2692C44.6469 47.99 38.9463 50.6736 33.298 51.9618C32.9777 52.0434 32.6735 52.1178 32.3526 52.1961C32.2325 52.225 32.1011 52.2032 31.9892 52.1409C31.8771 52.0782 31.7937 51.9801 31.7554 51.8628C31.7171 51.7455 31.7267 51.617 31.7802 51.5003C31.8339 51.384 31.9271 51.2889 32.0411 51.2414C32.0411 51.2414 32.0411 51.2414 32.0411 51.2414C32.3434 51.1164 32.6285 50.9955 32.9285 50.8677C38.3086 48.6853 42.8882 45.551 46.7175 41.3812C46.9386 41.1508 47.1479 40.9284 47.3677 40.6943Z" fill="black"/>
</g>
<path d="M44.0847 46.3623C48.9453 45.0601 53.9669 47.9951 55.2906 52.9354C56.6144 57.8756 53.7331 62.9282 48.8725 64.2307C44.0119 65.5331 38.9904 62.598 37.6666 57.6577C36.3429 52.7173 39.224 47.6647 44.0847 46.3623Z" fill="white" fill-opacity="0.1" stroke="#ECFF6D" stroke-width="1.00943"/>
<path d="M65.3665 40.6648C70.2271 39.3626 75.2487 42.2976 76.5724 47.2379C77.8961 52.1781 75.0149 57.2307 70.1543 58.5332C65.2936 59.8356 60.2722 56.9005 58.9484 51.9602C57.6246 47.0198 60.5058 41.9672 65.3665 40.6648Z" fill="white" fill-opacity="0.1" stroke="#ECFF6D" stroke-width="1.00943"/>
<defs>
<filter id="filter0_i_394_1674" x="7.35312" y="-3.97206" width="92.2168" height="107.608" filterUnits="userSpaceOnUse" color-interpolation-filters="sRGB">
<feFlood flood-opacity="0" result="BackgroundImageFix"/>
<feBlend mode="normal" in="SourceGraphic" in2="BackgroundImageFix" result="shape"/>
<feColorMatrix in="SourceAlpha" type="matrix" values="0 0 0 0 0 0 0 0 0 0 0 0 0 0 0 0 0 0 127 0" result="hardAlpha"/>
<feOffset dx="-8.32782" dy="-22.2075"/>
<feGaussianBlur stdDeviation="19.6839"/>
<feComposite in2="hardAlpha" operator="arithmetic" k2="-1" k3="1"/>
<feColorMatrix type="matrix" values="0 0 0 0 1 0 0 0 0 1 0 0 0 0 1 0 0 0 0.6 0"/>
<feBlend mode="normal" in2="shape" result="effect1_innerShadow_394_1674"/>
</filter>
<filter id="filter1_f_394_1674" x="-0.000406045" y="-0.000406045" width="117.999" height="118.001" filterUnits="userSpaceOnUse" color-interpolation-filters="sRGB">
<feFlood flood-opacity="0" result="BackgroundImageFix"/>
<feBlend mode="normal" in="SourceGraphic" in2="BackgroundImageFix" result="shape"/>
<feGaussianBlur stdDeviation="17.9553" result="effect1_foregroundBlur_394_1674"/>
</filter>
<filter id="filter2_g_394_1674" x="57.8984" y="37.0049" width="21.7611" height="4.92554" filterUnits="userSpaceOnUse" color-interpolation-filters="sRGB">
<feFlood flood-opacity="0" result="BackgroundImageFix"/>
<feBlend mode="normal" in="SourceGraphic" in2="BackgroundImageFix" result="shape"/>
<feTurbulence type="fractalNoise" baseFrequency="0.99900001287460327 0.99900001287460327" numOctaves="3" seed="2398" />
<feDisplacementMap in="shape" scale="0.20000000298023224" xChannelSelector="R" yChannelSelector="G" result="displacedImage" width="100%" height="100%" />
<feMerge result="effect1_texture_394_1674">
<feMergeNode in="displacedImage"/>
</feMerge>
</filter>
<filter id="filter3_g_394_1674" x="31.631" y="40.0115" width="19.2507" height="12.298" filterUnits="userSpaceOnUse" color-interpolation-filters="sRGB">
<feFlood flood-opacity="0" result="BackgroundImageFix"/>
<feBlend mode="normal" in="SourceGraphic" in2="BackgroundImageFix" result="shape"/>
<feTurbulence type="fractalNoise" baseFrequency="0.99900001287460327 0.99900001287460327" numOctaves="3" seed="2398" />
<feDisplacementMap in="shape" scale="0.20000000298023224" xChannelSelector="R" yChannelSelector="G" result="displacedImage" width="100%" height="100%" />
<feMerge result="effect1_texture_394_1674">
<feMergeNode in="displacedImage"/>
</feMerge>
</filter>
<linearGradient id="paint0_linear_394_1674" x1="100.527" y1="103.777" x2="29.3361" y2="11.8788" gradientUnits="userSpaceOnUse">
<stop offset="0.0246751" stop-color="white"/>
<stop offset="0.482373" stop-color="#2ADEE8"/>
<stop offset="1" stop-color="#9D57FF"/>
</linearGradient>
</defs>
</svg>
