<svg width="16" height="16" viewBox="0 0 16 16" fill="none" xmlns="http://www.w3.org/2000/svg">
<path d="M1.33301 6.66797L7.40474 1.87452C7.57414 1.74074 7.78374 1.66797 7.99967 1.66797C8.21561 1.66797 8.42521 1.74074 8.59461 1.87452L10.9997 3.77323V2.66797C10.9997 2.29978 11.2981 2.0013 11.6663 2.0013H12.333C12.7012 2.0013 12.9997 2.29978 12.9997 2.66797V5.35218L14.6663 6.66797" stroke="black" stroke-opacity="0.5" stroke-width="1.5" stroke-linecap="round" stroke-linejoin="round"/>
<path d="M13.3337 7.66797V10.3346C13.3337 12.2202 13.3337 13.163 12.7479 13.7488C12.1621 14.3346 11.2193 14.3346 9.33366 14.3346H6.66699C4.78137 14.3346 3.83857 14.3346 3.25278 13.7488C2.66699 13.163 2.66699 12.2202 2.66699 10.3346V7.66797" stroke="black" stroke-opacity="0.5" stroke-width="1.5" stroke-linecap="round" stroke-linejoin="round"/>
<path opacity="0.6" d="M10.001 10.332C9.46798 10.747 8.76778 10.9987 8.00098 10.9987C7.23418 10.9987 6.53399 10.747 6.00098 10.332" stroke="black" stroke-opacity="0.4" stroke-width="1.5" stroke-linecap="round" stroke-linejoin="round"/>
</svg>
