<svg width="16" height="16" viewBox="0 0 16 16" fill="none" xmlns="http://www.w3.org/2000/svg">
<path opacity="0.4" d="M10.3337 8.0013C10.3337 9.28997 9.28899 10.3346 8.00033 10.3346C6.71166 10.3346 5.66699 9.28997 5.66699 8.0013C5.66699 6.71264 6.71166 5.66797 8.00033 5.66797C9.28899 5.66797 10.3337 6.71264 10.3337 8.0013Z" stroke="black" stroke-opacity="0.5" stroke-width="1.5"/>
<path d="M13.8601 6.10134C14.3976 7.02787 14.6663 7.49107 14.6663 8C14.6663 8.50893 14.3976 8.97213 13.8601 9.89867L12.5776 12.1092C12.0422 13.032 11.7745 13.4935 11.3343 13.7467C10.8941 14 10.3598 14 9.29121 14H6.70814C5.63955 14 5.10527 14 4.66505 13.7467C4.22483 13.4935 3.95713 13.032 3.42175 12.1092L2.13929 9.89867C1.60177 8.97213 1.33301 8.50893 1.33301 8C1.33301 7.49107 1.60177 7.02787 2.13929 6.10133L3.42175 3.89081C3.95713 2.96797 4.22483 2.50656 4.66505 2.25328C5.10527 2 5.63955 2 6.70814 2H9.29121C10.3598 2 10.8941 2 11.3343 2.25328C11.7745 2.50656 12.0422 2.96798 12.5776 3.89081L13.8601 6.10134Z" stroke="black" stroke-opacity="0.5" stroke-width="1.5"/>
</svg>
