<svg width="16" height="16" viewBox="0 0 16 16" fill="none" xmlns="http://www.w3.org/2000/svg">
<path opacity="0.6" d="M10.9995 7.66667C12.2882 7.66667 13.3329 6.622 13.3329 5.33333C13.3329 4.04467 12.2882 3 10.9995 3C9.7896 3 8.79473 3.92093 8.67773 5.10009M10.9995 7.66667C10.7637 7.66667 10.536 7.63167 10.3213 7.5666M10.9995 7.66667C13.0246 7.66667 14.6662 9.15907 14.6662 11" stroke="black" stroke-opacity="0.5" stroke-width="1.5" stroke-linecap="round" stroke-linejoin="round"/>
<path opacity="0.6" d="M4.99967 7.66667C3.71101 7.66667 2.66634 6.622 2.66634 5.33333C2.66634 4.04467 3.71101 3 4.99967 3C6.20962 3 7.20447 3.92093 7.32147 5.10009M4.99967 7.66667C5.23555 7.66667 5.46324 7.63167 5.67785 7.5666M4.99967 7.66667C2.97463 7.66667 1.33301 9.15907 1.33301 11" stroke="black" stroke-opacity="0.5" stroke-width="1.5" stroke-linecap="round" stroke-linejoin="round"/>
<path d="M10.3337 7.33333C10.3337 6.04467 9.28899 5 8.00033 5C6.71166 5 5.66699 6.04467 5.66699 7.33333C5.66699 8.622 6.71166 9.66667 8.00033 9.66667C9.28899 9.66667 10.3337 8.622 10.3337 7.33333Z" stroke="black" stroke-opacity="0.5" stroke-width="1.5" stroke-linecap="round" stroke-linejoin="round"/>
<path d="M11.6663 13.0013C11.6663 11.1604 10.0247 9.66797 7.99967 9.66797C5.97463 9.66797 4.33301 11.1604 4.33301 13.0013" stroke="black" stroke-opacity="0.5" stroke-width="1.5" stroke-linecap="round" stroke-linejoin="round"/>
</svg>
