<svg width="16" height="16" viewBox="0 0 16 16" fill="none" xmlns="http://www.w3.org/2000/svg">
<path opacity="0.6" d="M10 6.66797C10 7.77257 9.1046 8.66797 8 8.66797C6.8954 8.66797 6 7.77257 6 6.66797C6 5.5634 6.8954 4.66797 8 4.66797C9.1046 4.66797 10 5.5634 10 6.66797Z" stroke="black" stroke-opacity="0.5" stroke-width="1.5" stroke-linecap="round" stroke-linejoin="round"/>
<path opacity="0.6" d="M3.66699 13.0013L4.04059 12.3475C4.63407 11.309 5.73855 10.668 6.93477 10.668H9.0659C10.2621 10.668 11.3666 11.309 11.96 12.3475L12.3336 13.0013" stroke="black" stroke-opacity="0.5" stroke-width="1.5" stroke-linecap="round" stroke-linejoin="round"/>
<path d="M9.99967 1.63723C9.36834 1.43893 8.69647 1.33203 7.99967 1.33203C4.31777 1.33203 1.33301 4.3168 1.33301 7.9987C1.33301 11.6806 4.31777 14.6654 7.99967 14.6654C11.6815 14.6654 14.6663 11.6806 14.6663 7.9987C14.6663 7.3019 14.5594 6.63006 14.3611 5.9987" stroke="black" stroke-opacity="0.5" stroke-width="1.5" stroke-linecap="round" stroke-linejoin="round"/>
<path d="M12.6495 1.34635C12.6533 1.32726 12.6807 1.32726 12.6845 1.34635C12.8871 2.33742 13.6616 3.11192 14.6527 3.31448C14.6718 3.31839 14.6718 3.34567 14.6527 3.34958C13.6616 3.55214 12.8871 4.32664 12.6845 5.31771C12.6807 5.3368 12.6533 5.3368 12.6495 5.31771C12.4469 4.32664 11.6724 3.55214 10.6813 3.34958C10.6622 3.34567 10.6622 3.31839 10.6813 3.31448C11.6724 3.11192 12.4469 2.33742 12.6495 1.34635Z" stroke="black" stroke-opacity="0.5" stroke-width="1.25" stroke-linecap="round" stroke-linejoin="round"/>
</svg>
