<svg width="117" height="37" viewBox="0 0 117 37" fill="none" xmlns="http://www.w3.org/2000/svg">
<g clip-path="url(#clip0_380_1061)">
<rect x="0.303221" y="0.303221" width="36.292" height="36.292" rx="12" fill="white"/>
<g filter="url(#filter1_i_380_1061)">
<path d="M16.0909 7.67367C19.8317 3.03135 26.9042 3.03135 30.645 7.67367L31.5235 8.76392C32.5624 10.0532 33.9252 11.0433 35.4724 11.633L36.7808 12.1316C42.3519 14.2547 44.5374 20.9811 41.2783 25.9733L40.5128 27.1458C39.6077 28.5322 39.0872 30.1343 39.0045 31.788L38.9346 33.1864C38.6369 39.1409 32.9151 43.298 27.1601 41.7411L25.8085 41.3754C24.2102 40.943 22.5257 40.943 20.9274 41.3754L19.5758 41.7411C13.8208 43.298 8.09902 39.1409 7.80135 33.1864L7.73145 31.788C7.64878 30.1343 7.12824 28.5322 6.22309 27.1458L5.45768 25.9733C2.19854 20.9811 4.38406 14.2547 9.95513 12.1316L11.2635 11.633C12.8107 11.0433 14.1735 10.0532 15.2124 8.76392L16.0909 7.67367Z" fill="url(#paint0_linear_380_1061)"/>
</g>
<g filter="url(#filter2_f_380_1061)">
<circle cx="23.425" cy="23.047" r="10.4416" fill="#882EFD" fill-opacity="0.8"/>
</g>
<circle cx="19.6876" cy="19.8924" r="1.73066" fill="black"/>
<circle cx="20.1996" cy="18.845" r="0.576886" fill="white" fill-opacity="0.8"/>
<circle cx="26.961" cy="19.8924" r="1.73066" fill="black"/>
<circle cx="27.473" cy="18.845" r="0.576886" fill="white" fill-opacity="0.8"/>
<path d="M25.0508 22.4208L30.7619 16.4212L29.5505 16.0173L28.8582 15.8443L24.7046 21.9016L25.0508 22.4208Z" fill="white" fill-opacity="0.06"/>
<path d="M15.009 22.3054L20.2587 16.3058L19.7395 15.9597L18.8165 15.8443L14.6629 21.9016L15.009 22.3054Z" fill="white" fill-opacity="0.06"/>
<path d="M22.5112 19.9181L24.2394 19.9181" stroke="white" stroke-width="0.457795"/>
<path d="M20.1366 26.1124C20.1366 26.1124 20.948 27.9585 23.3675 27.9585C25.7869 27.9585 26.5978 26.1124 26.5978 26.1124" stroke="black" stroke-width="0.686693" stroke-linecap="round"/>
<path d="M18.3537 15.7301C20.6448 15.7301 22.5073 17.613 22.5073 19.9417C22.5073 22.2704 20.6449 24.1533 18.3537 24.1533C16.0628 24.1531 14.2002 22.2702 14.2002 19.9417C14.2002 17.6132 16.0628 15.7303 18.3537 15.7301Z" fill="white" fill-opacity="0.1" stroke="white" stroke-width="0.457796"/>
<path d="M28.3915 15.7301C30.6826 15.7301 32.5451 17.613 32.5451 19.9417C32.5451 22.2704 30.6827 24.1533 28.3915 24.1533C26.1006 24.1531 24.238 22.2702 24.238 19.9417C24.238 17.6132 26.1006 15.7303 28.3915 15.7301Z" fill="white" fill-opacity="0.1" stroke="white" stroke-width="0.457796"/>
</g>
<rect x="0.153221" y="0.153221" width="36.592" height="36.592" rx="12.15" stroke="black" stroke-opacity="0.1" stroke-width="0.3"/>
<path d="M53.49 17.9828L55.1466 22.7413L56.9907 18.0139C57.6367 16.3966 57.9597 15.308 57.9597 14.7482C57.9597 14.0225 57.595 13.4731 56.8657 13.0998L56.9907 12.3845C57.5742 12.4467 58.241 12.4778 58.9912 12.4778C59.8247 12.4778 60.5436 12.4467 61.1479 12.3845L61.2417 13.0998C60.7832 13.4731 60.2831 14.2195 59.7413 15.3391C59.2829 16.2929 58.8766 17.1949 58.5223 18.045L55.0528 26.4112H54.1776L50.8019 17.1119L46.9573 26.4112H46.0821L43.0502 18.045L41.8312 14.9037C41.602 14.3854 41.3936 14.0225 41.2061 13.8152C41.0393 13.5871 40.7685 13.3487 40.3934 13.0998L40.5184 12.3845C41.1227 12.4467 41.9666 12.4778 43.0502 12.4778C43.8837 12.4778 44.6026 12.4467 45.2069 12.3845L45.3007 13.0998C44.6756 13.3901 44.363 13.8048 44.363 14.3439C44.363 14.8001 44.7068 16.013 45.3945 17.9828L47.0511 22.7413L48.9265 18.0139C49.5099 16.521 49.8017 15.4635 49.8017 14.8415C49.8017 14.2195 49.3641 13.6389 48.4889 13.0998L48.6139 12.3845C49.1974 12.4467 50.0413 12.4778 51.1457 12.4778C52.0001 12.4778 52.719 12.4467 53.3024 12.3845L53.3962 13.0998C52.7711 13.3901 52.4585 13.8048 52.4585 14.3439C52.4585 14.7793 52.8023 15.9923 53.49 17.9828Z" fill="#262626"/>
<path d="M65.3004 8.34134L65.2692 14.4683L65.3004 14.4994C66.3006 12.6126 67.6968 11.6692 69.4888 11.6692C71.0725 11.6692 72.2603 12.3119 73.0521 13.5975C73.4897 14.3854 73.7085 15.2977 73.7085 16.3344V19.911C73.7085 21.0514 73.7293 22.057 73.771 22.9279C73.8127 23.6121 73.9273 24.0994 74.1148 24.3896C74.3024 24.6799 74.667 24.9391 75.2088 25.1672L75.1151 25.8825C73.448 25.7374 71.781 25.7374 70.114 25.8825L70.0202 25.1672C70.562 24.9391 70.9162 24.6799 71.0829 24.3896C71.2705 24.0994 71.3851 23.6121 71.4268 22.9279C71.4893 22.2644 71.5205 21.2588 71.5205 19.911V16.6143C71.5205 15.7435 71.2705 15.0385 70.7704 14.4994C70.2911 13.9603 69.6347 13.6908 68.8012 13.6908C67.7385 13.6908 66.8841 14.0122 66.2381 14.6549C65.613 15.2977 65.3004 16.127 65.3004 17.143V19.911C65.3004 21.0514 65.3213 22.057 65.3629 22.9279C65.4046 23.6121 65.5192 24.0994 65.7068 24.3896C65.8943 24.6799 66.259 24.9391 66.8007 25.1672L66.707 25.8825C65.0399 25.7374 63.3729 25.7374 61.7059 25.8825L61.6121 25.1672C62.1539 24.9391 62.5081 24.6799 62.6748 24.3896C62.8624 24.0994 62.977 23.6121 63.0187 22.9279C63.0812 22.2644 63.1124 21.2588 63.1124 19.911V9.98971C63.1124 8.70419 63.0812 7.74004 63.0187 7.09728C62.977 6.47525 62.852 6.0502 62.6436 5.82213C62.4561 5.59405 62.0705 5.42818 61.4871 5.3245V4.64027C62.6332 4.03898 63.7376 3.31328 64.8003 2.46318L65.4567 2.71199C65.3525 4.68174 65.3004 6.55819 65.3004 8.34134Z" fill="#262626"/>
<path d="M77.5021 14.9659L76.9082 13.9707C77.2416 13.3487 77.773 12.8199 78.5023 12.3845C79.2524 11.9491 80.0547 11.7314 80.9091 11.7314C82.4719 11.7314 83.6284 12.2705 84.3786 13.3487C85.0037 14.2817 85.3163 15.4013 85.3163 16.7076V19.6933C85.3163 20.7093 85.3371 21.6527 85.3788 22.5236C85.4413 23.5603 85.9622 24.3171 86.9416 24.794L86.5353 26.038C84.6599 25.9551 83.5763 25.1464 83.2846 23.6121H83.2221C82.4302 25.3953 81.2216 26.2868 79.5963 26.2868C78.6169 26.2868 77.825 26.0173 77.2207 25.4782C76.6373 24.9184 76.3456 24.203 76.3456 23.3322C76.3456 22.1089 77.002 21.0722 78.3147 20.2221C79.4608 19.4964 81.0653 18.864 83.1283 18.3249V16.8009C83.1283 15.8679 82.9095 15.1214 82.4719 14.5616C82.0343 13.981 81.3779 13.6908 80.5027 13.6908C79.6067 13.6908 78.6065 14.1158 77.5021 14.9659ZM83.1283 21.124V19.4134C82.8782 19.4756 82.2739 19.7141 81.3154 20.1288C79.4817 20.8959 78.5648 21.7875 78.5648 22.8035C78.5648 23.2804 78.7002 23.6639 78.9711 23.9542C79.242 24.2445 79.6275 24.3896 80.1276 24.3896C80.8778 24.3896 81.555 24.0994 82.1593 23.5188C82.8053 22.9382 83.1283 22.14 83.1283 21.124Z" fill="#262626"/>
<path d="M87.0175 13.5042L86.9237 12.851C87.653 12.3119 88.2469 11.7729 88.7053 11.2338C89.1846 10.6947 89.6743 10.0001 90.1744 9.14997L90.9558 9.33658C90.9141 9.8342 90.8308 10.8502 90.7058 12.3845C91.9144 12.3638 93.0084 12.3223 93.9877 12.2601L94.2378 12.7888L93.9877 13.9396H90.6433V21.2484C90.6433 22.5961 90.81 23.4981 91.1434 23.9542C91.4143 24.286 91.8102 24.4518 92.3311 24.4518C92.8937 24.4518 93.4355 24.1927 93.9565 23.6743L94.4878 24.5762C94.3003 25.0531 93.9461 25.4575 93.4251 25.7892C92.925 26.121 92.3624 26.2868 91.7372 26.2868C90.737 26.2868 89.9348 25.924 89.3305 25.1983C88.7678 24.514 88.4865 23.3218 88.4865 21.6216V15.308C88.4865 14.686 88.3928 14.261 88.2052 14.0329C88.0385 13.8048 87.6426 13.6286 87.0175 13.5042Z" fill="#262626"/>
<path d="M95.0277 23.581C95.0277 23.2078 95.1319 22.9071 95.3403 22.6791C95.5487 22.451 95.83 22.3369 96.1842 22.3369C96.8719 22.3369 97.3199 22.7413 97.5283 23.5499C97.82 24.5451 98.4451 25.0428 99.4037 25.0428C100.904 25.0428 101.654 24.3482 101.654 22.959C101.654 22.3162 101.446 21.7668 101.029 21.3106C100.633 20.8545 99.9246 20.3672 98.9036 19.8488C96.6114 18.6877 95.4653 17.2778 95.4653 15.6191C95.4653 14.5201 95.8612 13.5975 96.6531 12.851C97.4449 12.0839 98.4139 11.7003 99.5599 11.7003C100.644 11.7003 101.581 12.0009 102.373 12.6022C102.915 13.0376 103.186 13.5456 103.186 14.1262C103.186 14.4579 103.082 14.7275 102.873 14.9348C102.686 15.1422 102.425 15.2458 102.092 15.2458C101.529 15.2458 101.092 14.8934 100.779 14.1884C100.425 13.4005 99.8621 13.0065 99.0911 13.0065C98.5701 13.0065 98.1326 13.1724 97.7783 13.5042C97.4449 13.8359 97.2782 14.261 97.2782 14.7793C97.2782 15.4013 97.497 15.9612 97.9346 16.4588C98.3722 16.9357 99.1328 17.4437 100.216 17.9828C101.425 18.5633 102.29 19.1957 102.811 19.8799C103.352 20.5434 103.623 21.3728 103.623 22.3681C103.623 23.5499 103.207 24.514 102.373 25.2605C101.56 25.9862 100.529 26.349 99.2786 26.349C97.8617 26.349 96.7573 26.0173 95.9654 25.3538C95.3403 24.8147 95.0277 24.2238 95.0277 23.581Z" fill="#262626"/>
<path d="M108.748 17.9828L110.686 22.8346L112.749 18.0139C113.395 16.5417 113.718 15.4532 113.718 14.7482C113.718 14.064 113.353 13.5145 112.624 13.0998L112.749 12.3845C113.333 12.4467 114.041 12.4778 114.875 12.4778C115.625 12.4778 116.302 12.4467 116.906 12.3845L117 13.0998C116.542 13.5145 116.041 14.261 115.5 15.3391L114.281 18.045L108.748 30.4855C108.165 31.8125 107.56 32.7974 106.935 33.4401C106.269 34.1036 105.477 34.4354 104.56 34.4354C104.143 34.4354 103.789 34.311 103.497 34.0622C103.226 33.8134 103.091 33.5023 103.091 33.1291C103.091 32.7559 103.205 32.4449 103.435 32.1961C103.643 31.968 103.924 31.854 104.279 31.854C104.424 31.854 104.654 31.8747 104.966 31.9162C105.3 31.9784 105.529 32.0095 105.654 32.0095C106.258 32.0095 106.789 31.5119 107.248 30.5166L109.498 25.6648L106.404 18.045L105.154 14.9037C104.924 14.3854 104.716 14.0225 104.529 13.8152C104.362 13.5871 104.091 13.3487 103.716 13.0998L103.841 12.3845C104.737 12.4467 105.581 12.4778 106.373 12.4778C106.915 12.4778 107.633 12.4467 108.529 12.3845L108.623 13.0998C107.998 13.3901 107.686 13.8048 107.686 14.3439C107.686 15.0281 108.04 16.2411 108.748 17.9828Z" fill="#262626"/>
<defs>
<filter id="filter1_i_380_1061" x="0.126549" y="-5.96126" width="42.6749" height="48.0302" filterUnits="userSpaceOnUse" color-interpolation-filters="sRGB">
<feFlood flood-opacity="0" result="BackgroundImageFix"/>
<feBlend mode="normal" in="SourceGraphic" in2="BackgroundImageFix" result="shape"/>
<feColorMatrix in="SourceAlpha" type="matrix" values="0 0 0 0 0 0 0 0 0 0 0 0 0 0 0 0 0 0 127 0" result="hardAlpha"/>
<feOffset dx="-3.77681" dy="-10.0715"/>
<feGaussianBlur stdDeviation="8.92701"/>
<feComposite in2="hardAlpha" operator="arithmetic" k2="-1" k3="1"/>
<feColorMatrix type="matrix" values="0 0 0 0 1 0 0 0 0 1 0 0 0 0 1 0 0 0 0.6 0"/>
<feBlend mode="normal" in2="shape" result="effect1_innerShadow_380_1061"/>
</filter>
<filter id="filter2_f_380_1061" x="-3.4348" y="-3.81285" width="53.7192" height="53.7192" filterUnits="userSpaceOnUse" color-interpolation-filters="sRGB">
<feFlood flood-opacity="0" result="BackgroundImageFix"/>
<feBlend mode="normal" in="SourceGraphic" in2="BackgroundImageFix" result="shape"/>
<feGaussianBlur stdDeviation="8.14304" result="effect1_foregroundBlur_380_1061"/>
</filter>
<linearGradient id="paint0_linear_380_1061" x1="36.4127" y1="47.6315" x2="15.9332" y2="-1.17311" gradientUnits="userSpaceOnUse">
<stop offset="0.0246751" stop-color="white"/>
<stop offset="0.482373" stop-color="#2ADEE8"/>
<stop offset="0.951923" stop-color="#63FFAC"/>
</linearGradient>
<clipPath id="clip0_380_1061">
<rect x="0.303221" y="0.303221" width="36.292" height="36.292" rx="12" fill="white"/>
</clipPath>
</defs>
</svg>
