<svg width="20" height="20" viewBox="0 0 20 20" fill="none" xmlns="http://www.w3.org/2000/svg">
<path d="M11.6164 5.28089C12.9773 6.05395 14.0466 6.66146 14.8084 7.21795C15.5754 7.77827 16.1428 8.36389 16.3459 9.13605C16.4949 9.70222 16.4949 10.2979 16.3459 10.8641C16.1428 11.6362 15.5754 12.2218 14.8084 12.7821C14.0466 13.3386 12.9773 13.9461 11.6165 14.7192C10.302 15.466 9.19352 16.0957 8.35202 16.4537C7.50377 16.8145 6.73042 16.9974 5.97882 16.7844C5.42645 16.6278 4.92386 16.3307 4.51898 15.9222C3.96951 15.3679 3.74894 14.6016 3.64459 13.6796C3.541 12.7641 3.54101 11.5659 3.54102 10.0418V9.9583C3.54101 8.43422 3.541 7.23596 3.64459 6.32059C3.74894 5.39847 3.96951 4.63223 4.51898 4.07784C4.92386 3.66936 5.42645 3.37227 5.97882 3.21574C6.73042 3.00276 7.50377 3.18563 8.35202 3.54643C9.19352 3.90435 10.302 4.53409 11.6164 5.28089Z" fill="white"/>
</svg>
